# xmcd
#
# Track frame offsets: 
#        150
#        17277
#        33420
#        47481
#        65426
#        81367
#        95559
#        109276
#        126166
#        140479
#        160909
#
# Disc length: 2346 seconds
#
# Revision: 0
# Processed by: cddbd v1.5.2PL0 Copyright (c) Steve Scherf et al.
# Submitted via: ExactAudioCopy v0.99pb4
#
DISCID=8d09280b
DTITLE=Marthia Sides - I Got Faith
DYEAR=2008
DGENRE=Country
TTITLE0=Just Right
TTITLE1=Underappreciated
TTITLE2=Some Assembly Required
TTITLE3=Teardrop
TTITLE4=What a Girl Wants
TTITLE5=So Many Honky Tonks
TTITLE6=I Got Faith
TTITLE7=Angels in the Snow
TTITLE8=The Perfect Fall
TTITLE9=Take My Hand
TTITLE10=True
EXTD=
EXTT0=
EXTT1=
EXTT2=
EXTT3=
EXTT4=
EXTT5=
EXTT6=
EXTT7=
EXTT8=
EXTT9=
EXTT10=
PLAYORDER=
